<svg width="800" height="800" viewBox="0 0 800 800" fill="none" xmlns="http://www.w3.org/2000/svg">
<path d="M292.333 570.333C277.505 592.115 261.596 613.141 244.667 633.333C121.667 629.833 75 550 75 550C76.7483 436.885 104.16 325.644 155.167 224.667C200.003 189.591 254.635 169.322 311.5 166.667L328.167 205.167" stroke="white" stroke-width="16.6667" stroke-linecap="round" stroke-linejoin="round"/>
<path d="M297.5 377.833C289.412 378.03 281.454 379.916 274.139 383.371C266.823 386.826 260.311 391.773 255.022 397.894C249.732 404.016 245.781 411.177 243.424 418.916C241.067 426.655 240.354 434.802 241.333 442.833C242.007 457.107 248.08 470.592 258.323 480.556C268.566 490.521 282.213 496.22 296.5 496.5C304.632 496.315 312.638 494.445 320.011 491.008C327.385 487.572 333.965 482.644 339.337 476.536C344.709 470.428 348.756 463.272 351.223 455.52C353.689 447.768 354.521 439.589 353.667 431.5C352.711 417.151 346.414 403.682 336.017 393.747C325.619 383.813 311.877 378.135 297.5 377.833Z" stroke="white" stroke-width="16.6667" stroke-linecap="round" stroke-linejoin="round"/>
<path d="M203.334 239.5C246.585 220.628 292.433 208.379 339.334 203.167C359.442 200.526 379.726 199.467 400 200C420.283 199.577 440.567 200.748 460.667 203.5C507.568 208.713 553.416 220.961 596.667 239.833M472.167 205L488.834 166.5C545.754 169.299 600.392 189.745 645.167 225C696.01 325.903 723.305 437.024 725 550C725 550 678.334 629.833 555.334 633.333C538.391 612.979 522.482 591.785 507.667 569.833M615.334 521.5C570.702 548.362 522.101 567.994 471.334 579.667C447.842 584.294 423.942 586.528 400 586.333C376.058 586.528 352.158 584.294 328.667 579.667C277.9 567.994 229.299 548.362 184.667 521.5" stroke="white" stroke-width="16.6667" stroke-linecap="round" stroke-linejoin="round"/>
<path d="M502.5 377.833C510.588 378.03 518.546 379.916 525.861 383.371C533.177 386.826 539.689 391.773 544.978 397.894C550.268 404.016 554.219 411.177 556.576 418.916C558.933 426.655 559.646 434.802 558.667 442.833C557.993 457.107 551.92 470.592 541.677 480.556C531.434 490.521 517.787 496.22 503.5 496.5C495.368 496.315 487.362 494.445 479.989 491.008C472.616 487.572 466.035 482.644 460.663 476.536C455.291 470.428 451.244 463.272 448.777 455.52C446.311 447.768 445.479 439.589 446.334 431.5C447.289 417.151 453.586 403.682 463.984 393.747C474.381 383.813 488.123 378.135 502.5 377.833Z" stroke="white" stroke-width="16.6667" stroke-linecap="round" stroke-linejoin="round"/>
</svg>
