<svg width="33" height="33" viewBox="0 0 33 33" fill="none" xmlns="http://www.w3.org/2000/svg">
<path d="M6.77049 16.4148C6.79485 16.5609 6.8192 16.707 6.86791 16.8531C6.98968 17.3646 7.0871 17.876 7.18452 18.3631C7.40371 19.4834 7.59854 20.5306 8.06127 21.5292C8.81625 23.1365 10.0827 24.2081 11.5196 24.4517C12.9078 24.6952 14.3203 24.1594 15.4893 22.9904C15.9033 22.552 16.3904 22.1624 16.9506 22.1624C17.462 22.1624 17.9004 22.5033 18.3875 22.9904C19.4834 24.0864 20.8716 24.5978 22.2842 24.3786C23.7454 24.1594 25.0362 23.2096 25.7912 21.7727C27.1794 19.1668 27.3985 16.3661 27.4229 13.7358C27.4229 13.2244 27.3011 12.8347 27.0332 12.5668C26.7897 12.3232 26.4244 12.1771 25.9616 12.1771H25.9373C24.7196 12.1771 24.403 13.1269 24.3786 13.955C24.3543 14.4421 24.3543 14.9292 24.3786 15.4162C24.403 16.5853 24.403 17.7786 24.062 18.972C23.8428 19.7513 23.3801 21.3587 21.7484 21.4074C21.724 21.4074 21.6996 21.4074 21.6753 21.4074C20.0436 21.4074 19.4103 19.7513 19.1912 19.1911C18.7041 17.9247 18.631 16.5852 18.5336 15.2945C18.5092 15.0996 18.5092 14.9048 18.4849 14.7343C18.4362 14.1498 18.217 12.8347 16.9993 12.8103C16.1469 12.8103 15.5867 13.5653 15.5624 14.7343C15.538 16.1469 15.3432 17.6081 15.0509 19.045C14.71 20.6524 13.8576 21.4561 12.5424 21.4561C12.5424 21.4561 12.5424 21.4561 12.5181 21.4561C10.7159 21.4561 10.3262 19.7026 10.1801 19.045C10.034 18.4118 9.93655 17.7786 9.83913 17.1697C9.71736 16.4148 9.59559 15.6354 9.40075 14.8805C9.05979 13.5897 8.57271 12.5424 7.62289 11.9579C6.91662 11.5926 6.11293 11.3978 5.30924 11.4222H5.28488C4.09153 11.5439 3.06865 11.9579 2.21625 12.6886C-0.0243437 14.6125 1.10256e-05 17.9491 1.10256e-05 18.3631V26.4C1.10256e-05 30.0531 2.94687 33 6.60001 33H26.1321C29.7853 33 32.7321 30.0531 32.7321 26.4V6.6C32.7321 2.94686 29.7853 0 26.1321 0H6.60001C2.94687 0 1.10256e-05 2.94686 1.10256e-05 6.6V7.74465C1.10256e-05 8.49964 0.608867 9.13284 1.3882 9.13284C2.14318 9.13284 2.77639 8.52399 2.77639 7.74465C2.77639 4.99262 5.01699 2.75202 7.76902 2.75202H24.9875C27.7395 2.75202 29.9801 4.99262 29.9801 7.74465V25.231C29.9801 27.983 27.7395 30.2236 24.9875 30.2236H7.76902C5.01699 30.2236 2.77639 27.983 2.77639 25.231V18.3387V18.3144V18.29C2.75204 17.6325 2.94688 15.7085 4.04282 14.783C4.28636 14.5882 4.55426 14.4177 4.87086 14.3203C5.13876 14.2229 5.43101 14.2472 5.69891 14.3447C6.11293 14.4908 6.40518 14.8317 6.52695 15.2458L6.77049 16.4148Z" fill="url(#paint0_linear_2035_1017)"/>
<defs>
<linearGradient id="paint0_linear_2035_1017" x1="1.1025e-05" y1="16.5122" x2="32.7309" y2="16.5122" gradientUnits="userSpaceOnUse">
<stop stop-color="#21EEA3"/>
<stop offset="0.0642" stop-color="#21E6AA"/>
<stop offset="0.1623" stop-color="#23D1BE"/>
<stop offset="0.2813" stop-color="#25AFDD"/>
<stop offset="0.3873" stop-color="#278AFF"/>
<stop offset="0.5352" stop-color="#4576FD"/>
<stop offset="0.8551" stop-color="#9044F9"/>
<stop offset="1" stop-color="#B42CF7"/>
</linearGradient>
</defs>
</svg>
