<svg width="56" height="56" viewBox="0 0 56 56" fill="none" xmlns="http://www.w3.org/2000/svg">
<path d="M11.4893 27.8554C11.5307 28.1033 11.572 28.3513 11.6546 28.5993C11.8613 29.4672 12.0266 30.3351 12.1919 31.1616C12.5639 33.0627 12.8945 34.8398 13.6797 36.5343C14.9609 39.262 17.11 41.0805 19.5484 41.4937C21.9041 41.907 24.3011 40.9978 26.2849 39.014C26.9875 38.2701 27.814 37.6089 28.7646 37.6089C29.6325 37.6089 30.3764 38.1875 31.203 39.014C33.0628 40.8738 35.4185 41.7417 37.8155 41.3698C40.2952 40.9978 42.4856 39.386 43.7668 36.9476C46.1225 32.5255 46.4945 27.7727 46.5358 23.3092C46.5358 22.4413 46.3292 21.7801 45.8746 21.3255C45.4613 20.9122 44.8414 20.6642 44.0561 20.6642H44.0148C41.9484 20.6642 41.4111 22.276 41.3698 23.6812C41.3284 24.5077 41.3284 25.3343 41.3698 26.1609C41.4111 28.1447 41.4111 30.1698 40.8325 32.1948C40.4605 33.5174 39.6753 36.245 36.9063 36.3277C36.865 36.3277 36.8237 36.3277 36.7823 36.3277C34.0133 36.3277 32.9388 33.5173 32.5668 32.5668C31.7402 30.4177 31.6163 28.1447 31.451 25.9542C31.4096 25.6236 31.4096 25.293 31.3683 25.0037C31.2856 24.0118 30.9137 21.7801 28.8473 21.7388C27.4008 21.7388 26.4502 23.0199 26.4089 25.0037C26.3676 27.4007 26.0369 29.8805 25.541 32.3188C24.9624 35.0465 23.5159 36.4103 21.2842 36.4103C21.2842 36.4103 21.2842 36.4103 21.2428 36.4103C18.1845 36.4103 17.5233 33.4347 17.2753 32.3188C17.0273 31.2443 16.862 30.1697 16.6967 29.1365C16.4901 27.8553 16.2834 26.5329 15.9528 25.2517C15.3742 23.0613 14.5476 21.2841 12.9358 20.2922C11.7373 19.6723 10.3735 19.3417 9.00962 19.383H8.96829C6.9432 19.5897 5.2074 20.2923 3.76091 21.5321C-0.0413104 24.7971 1.871e-05 30.4591 1.871e-05 31.1616V44.8C1.871e-05 50.9993 5.00075 56 11.2 56H44.3454C50.5447 56 55.5454 50.9993 55.5454 44.8V11.2C55.5454 5.00074 50.5447 0 44.3454 0H11.2C5.00075 0 1.871e-05 5.00074 1.871e-05 11.2V13.1424C1.871e-05 14.4236 1.03323 15.4982 2.35574 15.4982C3.63692 15.4982 4.71146 14.465 4.71146 13.1424C4.71146 8.47233 8.51368 4.6701 13.1838 4.6701H42.403C47.0731 4.6701 50.8753 8.47233 50.8753 13.1424V42.8162C50.8753 47.4864 47.0731 51.2886 42.403 51.2886H13.1838C8.51368 51.2886 4.71146 47.4864 4.71146 42.8162V31.1203V31.079V31.0377C4.67013 29.9218 5.00076 26.6568 6.86054 25.0864C7.27382 24.7557 7.72844 24.4664 8.26571 24.3011C8.72032 24.1358 9.21626 24.1771 9.67087 24.3424C10.3735 24.5904 10.8694 25.169 11.076 25.8716L11.4893 27.8554Z" fill="url(#paint0_linear_2285_457)"/>
<defs>
<linearGradient id="paint0_linear_2285_457" x1="1.87091e-05" y1="28.0207" x2="55.5434" y2="28.0207" gradientUnits="userSpaceOnUse">
<stop stop-color="#21EEA3"/>
<stop offset="0.0642" stop-color="#21E6AA"/>
<stop offset="0.1623" stop-color="#23D1BE"/>
<stop offset="0.2813" stop-color="#25AFDD"/>
<stop offset="0.3873" stop-color="#278AFF"/>
<stop offset="0.5352" stop-color="#4576FD"/>
<stop offset="0.8551" stop-color="#9044F9"/>
<stop offset="1" stop-color="#B42CF7"/>
</linearGradient>
</defs>
</svg>
