<svg width="193" height="33" viewBox="0 0 193 33" fill="none" xmlns="http://www.w3.org/2000/svg">
<path d="M6.77049 16.4148C6.79485 16.5609 6.8192 16.707 6.86791 16.8531C6.98968 17.3646 7.0871 17.876 7.18452 18.3631C7.40371 19.4834 7.59854 20.5306 8.06127 21.5292C8.81625 23.1365 10.0827 24.2081 11.5196 24.4517C12.9078 24.6952 14.3203 24.1594 15.4893 22.9904C15.9033 22.552 16.3904 22.1624 16.9506 22.1624C17.462 22.1624 17.9004 22.5033 18.3875 22.9904C19.4834 24.0864 20.8716 24.5978 22.2842 24.3786C23.7454 24.1594 25.0362 23.2096 25.7912 21.7727C27.1794 19.1668 27.3985 16.3661 27.4229 13.7358C27.4229 13.2244 27.3011 12.8347 27.0332 12.5668C26.7897 12.3232 26.4244 12.1771 25.9616 12.1771H25.9373C24.7196 12.1771 24.403 13.1269 24.3786 13.955C24.3543 14.4421 24.3543 14.9292 24.3786 15.4162C24.403 16.5853 24.403 17.7786 24.062 18.972C23.8428 19.7513 23.3801 21.3587 21.7484 21.4074C21.724 21.4074 21.6996 21.4074 21.6753 21.4074C20.0436 21.4074 19.4103 19.7513 19.1912 19.1911C18.7041 17.9247 18.631 16.5852 18.5336 15.2945C18.5092 15.0996 18.5092 14.9048 18.4849 14.7343C18.4362 14.1498 18.217 12.8347 16.9993 12.8103C16.1469 12.8103 15.5867 13.5653 15.5624 14.7343C15.538 16.1469 15.3432 17.6081 15.0509 19.045C14.71 20.6524 13.8576 21.4561 12.5424 21.4561C12.5424 21.4561 12.5424 21.4561 12.5181 21.4561C10.7159 21.4561 10.3262 19.7026 10.1801 19.045C10.034 18.4118 9.93655 17.7786 9.83913 17.1697C9.71736 16.4148 9.59559 15.6354 9.40075 14.8805C9.05979 13.5897 8.57271 12.5424 7.62289 11.9579C6.91662 11.5926 6.11293 11.3978 5.30924 11.4222H5.28488C4.09153 11.5439 3.06865 11.9579 2.21625 12.6886C-0.0243436 14.6125 1.10256e-05 17.9491 1.10256e-05 18.3631V26.4C1.10256e-05 30.0531 2.94687 33 6.60001 33H26.1321C29.7853 33 32.7321 30.0531 32.7321 26.4V6.6C32.7321 2.94686 29.7853 0 26.1321 0H6.60001C2.94687 0 1.10256e-05 2.94686 1.10256e-05 6.6V7.74465C1.10256e-05 8.49963 0.608867 9.13284 1.3882 9.13284C2.14318 9.13284 2.77639 8.52399 2.77639 7.74465C2.77639 4.99262 5.01699 2.75202 7.76902 2.75202H24.9875C27.7395 2.75202 29.9801 4.99262 29.9801 7.74465V25.231C29.9801 27.983 27.7395 30.2236 24.9875 30.2236H7.76902C5.01699 30.2236 2.77639 27.983 2.77639 25.231V18.3387V18.3144V18.29C2.75204 17.6325 2.94688 15.7085 4.04282 14.783C4.28636 14.5882 4.55426 14.4177 4.87086 14.3203C5.13876 14.2229 5.43101 14.2472 5.69891 14.3447C6.11293 14.4908 6.40518 14.8317 6.52695 15.2458L6.77049 16.4148Z" fill="url(#paint0_linear_2285_491)"/>
<path d="M43.9592 25.3042C42.571 24.3057 41.6699 22.9905 41.2559 21.3101L43.7644 20.6038C44.0323 21.8215 44.6167 22.7713 45.5179 23.4776C46.4433 24.1839 47.7097 24.5248 49.3658 24.5248C50.8271 24.5248 51.9474 24.2082 52.7511 23.5994C53.5548 22.9905 53.9444 22.1868 53.9444 21.164C53.9444 20.2141 53.6278 19.5322 52.9946 19.1182C52.3614 18.6798 51.2898 18.3632 49.7798 18.1684L47.9046 17.9005C45.7614 17.5839 44.2027 16.9994 43.2773 16.147C42.3518 15.2702 41.8891 14.1499 41.8891 12.7617C41.8891 11.7632 42.1813 10.8621 42.7415 10.0341C43.3016 9.23036 44.1053 8.57281 45.1525 8.11008C46.1998 7.623 47.3931 7.40381 48.757 7.40381C50.6079 7.40381 52.1666 7.84218 53.433 8.69458C54.7238 9.54698 55.6005 10.716 56.0876 12.2259L53.774 12.8835C53.4086 11.8363 52.7998 11.0569 51.9474 10.4724C51.095 9.91228 49.9747 9.62004 48.6108 9.62004C47.1496 9.62004 46.078 9.91229 45.3474 10.5211C44.6411 11.13 44.2758 11.8363 44.2758 12.6643C44.2758 13.2245 44.3976 13.6872 44.6167 14.0525C44.8359 14.4178 45.25 14.7344 45.8345 15.0023C46.419 15.2702 47.247 15.4651 48.3186 15.6355L50.2669 15.9278C52.2883 16.2444 53.8227 16.8045 54.8212 17.6569C55.8441 18.5093 56.3555 19.654 56.3555 21.1396C56.3555 22.2355 56.0633 23.2097 55.5031 24.0865C54.943 24.9389 54.1149 25.6208 53.0677 26.0835C52.0204 26.5706 50.7784 26.7898 49.3658 26.7898C47.1496 26.7654 45.3474 26.2783 43.9592 25.3042Z" fill="white"/>
<path d="M60.6908 25.9133C59.7653 25.3532 59.0347 24.5495 58.5232 23.5266C57.9874 22.5037 57.7439 21.3104 57.7439 19.9465C57.7439 18.5827 58.0118 17.3893 58.5232 16.3664C59.059 15.3436 59.7653 14.5642 60.6908 14.0041C61.6162 13.4439 62.6878 13.176 63.9055 13.176C65.0989 13.176 66.1705 13.4439 67.0959 14.0041C68.0214 14.5642 68.752 15.3436 69.2878 16.3664C69.8236 17.3893 70.0672 18.5827 70.0672 19.9465C70.0672 21.3104 69.7993 22.5037 69.2878 23.5266C68.752 24.5495 68.0214 25.3532 67.0959 25.9133C66.1705 26.4735 65.0989 26.7413 63.9055 26.7413C62.6635 26.7413 61.6162 26.4735 60.6908 25.9133ZM61.0317 23.4535C61.7136 24.3059 62.6635 24.72 63.8812 24.72C65.0989 24.72 66.0487 24.3059 66.7306 23.4535C67.4125 22.6011 67.7535 21.4565 67.7535 19.9465C67.7535 18.4853 67.4125 17.3163 66.7306 16.4639C66.0487 15.6115 65.0989 15.1974 63.8812 15.1974C62.6635 15.1974 61.7136 15.6115 61.0317 16.4639C60.3498 17.3163 60.0088 18.4609 60.0088 19.9465C60.0088 21.4321 60.3498 22.6011 61.0317 23.4535Z" fill="white"/>
<path d="M74.2316 26.3753H71.918V7.71997H74.2316V26.3753Z" fill="white"/>
<path d="M77.3733 25.7671C76.5696 25.1339 76.1799 24.2571 76.1799 23.1369C76.1799 21.9922 76.594 21.1154 77.3976 20.4822C78.2257 19.849 79.3703 19.3863 80.8803 19.1184L81.9275 18.9236C82.9748 18.7531 83.7054 18.5582 84.1925 18.3391C84.6552 18.0955 84.8988 17.7302 84.8988 17.1944C84.8988 16.5612 84.6309 16.0498 84.0707 15.6845C83.5106 15.3191 82.8043 15.1243 81.9519 15.1243C80.9047 15.1243 80.101 15.3678 79.5652 15.8549C79.0294 16.342 78.6397 16.9752 78.4205 17.7302L76.2774 17.2188C76.5209 16.0985 77.1297 15.1487 78.1039 14.345C79.0781 13.5413 80.3445 13.1516 81.9032 13.1516C82.7799 13.1516 83.5593 13.2734 84.2655 13.5169C84.9718 13.7605 85.532 14.1014 85.9947 14.5398C86.774 15.2948 87.1637 16.342 87.1637 17.7302V22.942C87.1637 24.6955 87.2368 25.8402 87.3829 26.376H85.2154C85.0936 25.7428 85.0205 25.1826 84.9718 24.6712C84.5091 25.28 83.9002 25.7915 83.1452 26.1568C82.3903 26.5221 81.5379 26.7169 80.5881 26.7169C79.2486 26.7169 78.177 26.4003 77.3733 25.7671ZM79.1512 24.3546C79.6139 24.6712 80.2227 24.8173 80.9777 24.8173C82.1711 24.8173 83.0965 24.5007 83.8272 23.8431C84.5334 23.1856 84.8988 22.2114 84.8988 20.945V19.6298C84.6796 19.8734 84.3873 20.0926 83.9977 20.263C83.608 20.4335 82.9991 20.604 82.1711 20.7745L81.2213 20.945C80.2714 21.1642 79.5895 21.4077 79.1512 21.6999C78.7128 21.9922 78.4936 22.4549 78.4936 23.0394C78.4692 23.5996 78.6884 24.038 79.1512 24.3546Z" fill="white"/>
<path d="M89.6724 13.5896H91.8642V15.8789C92.3513 15.0752 92.9845 14.4177 93.7882 13.9306C94.5919 13.4435 95.4687 13.2 96.4672 13.2C97.9528 13.2 99.0731 13.6627 99.8281 14.5638C100.583 15.4649 100.948 16.707 100.948 18.3143V26.4H98.6347V18.8014C98.6347 17.6081 98.4155 16.707 98.0015 16.1225C97.5875 15.538 96.8812 15.2457 95.9071 15.2457C95.2982 15.2457 94.6893 15.4162 94.1292 15.7572C93.5447 16.0981 93.082 16.5852 92.7166 17.1697C92.4731 17.6081 92.3026 18.1195 92.1808 18.704C92.0591 19.2885 92.0104 20.0679 92.0104 21.042V26.3513H89.6967V13.5896H89.6724Z" fill="white"/>
<path d="M104.017 25.7671C103.213 25.1339 102.823 24.2571 102.823 23.1369C102.823 21.9922 103.238 21.1154 104.041 20.4822C104.869 19.849 106.014 19.3863 107.524 19.1184L108.571 18.9236C109.618 18.7531 110.349 18.5582 110.836 18.3391C111.299 18.0955 111.542 17.7302 111.542 17.1944C111.542 16.5612 111.274 16.0498 110.714 15.6845C110.154 15.3191 109.448 15.1243 108.595 15.1243C107.548 15.1243 106.745 15.3678 106.209 15.8549C105.673 16.342 105.283 16.9752 105.064 17.7302L102.921 17.2188C103.164 16.0985 103.773 15.1487 104.747 14.345C105.722 13.5413 106.988 13.1516 108.547 13.1516C109.423 13.1516 110.203 13.2734 110.909 13.5169C111.615 13.7605 112.176 14.1014 112.638 14.5398C113.418 15.2948 113.807 16.342 113.807 17.7302V22.942C113.807 24.6955 113.88 25.8402 114.026 26.376H111.859C111.737 25.7428 111.664 25.1826 111.615 24.6712C111.153 25.28 110.544 25.7915 109.789 26.1568C109.034 26.5221 108.181 26.7169 107.232 26.7169C105.892 26.7169 104.821 26.4003 104.017 25.7671ZM105.795 24.3546C106.257 24.6712 106.866 24.8173 107.621 24.8173C108.815 24.8173 109.74 24.5007 110.471 23.8431C111.177 23.1856 111.542 22.2114 111.542 20.945V19.6298C111.323 19.8734 111.031 20.0926 110.641 20.263C110.252 20.4335 109.643 20.604 108.815 20.7745L107.865 20.945C106.915 21.1642 106.233 21.4077 105.795 21.6999C105.356 21.9922 105.137 22.4549 105.137 23.0394C105.113 23.5996 105.332 24.038 105.795 24.3546Z" fill="white"/>
<path d="M120.651 7.71997H124.158L127.494 23.9643L130.734 7.71997H135.702L138.941 23.9643L142.277 7.71997H145.736L141.669 26.3753H136.359L133.218 10.6668L130.1 26.3753H124.742L120.651 7.71997Z" fill="white"/>
<path d="M146.491 25.7428C145.687 25.0853 145.273 24.2085 145.273 23.0882C145.273 21.9436 145.687 21.0424 146.539 20.3849C147.392 19.703 148.634 19.2159 150.314 18.9236L151.313 18.7532C152.165 18.5827 152.774 18.4122 153.164 18.2174C153.529 18.0225 153.724 17.6816 153.724 17.2188C153.724 16.7318 153.505 16.3421 153.066 16.0498C152.628 15.7576 152.043 15.6115 151.313 15.6115C150.46 15.6115 149.803 15.8306 149.34 16.269C148.853 16.7074 148.536 17.2675 148.39 17.9008L145.443 17.2919C145.711 16.1473 146.345 15.1731 147.343 14.3694C148.342 13.5657 149.657 13.176 151.288 13.176C152.141 13.176 152.896 13.2734 153.578 13.4683C154.26 13.6631 154.844 13.9554 155.283 14.345C156.305 15.1731 156.817 16.3421 156.817 17.8521V22.9177C156.817 24.7686 156.89 25.9377 157.012 26.376H154.187C154.089 25.962 154.016 25.4749 153.967 24.8661C153.505 25.4262 152.896 25.889 152.165 26.2056C151.435 26.5465 150.631 26.6926 149.754 26.6926C148.39 26.717 147.294 26.4004 146.491 25.7428ZM148.902 23.965C149.267 24.2085 149.754 24.3303 150.339 24.3303C151.362 24.3303 152.165 24.0624 152.798 23.5266C153.407 22.9908 153.724 22.1871 153.724 21.1399V19.9952C153.529 20.2144 153.285 20.3849 152.969 20.531C152.652 20.6771 152.19 20.8233 151.532 20.945L150.607 21.1642C149.827 21.3347 149.267 21.5539 148.902 21.7974C148.536 22.041 148.366 22.4063 148.366 22.9177C148.366 23.3561 148.536 23.7214 148.902 23.965Z" fill="white"/>
<path d="M160.884 25.7916C160.275 25.1583 159.959 24.2085 159.959 22.9421V16.0742H157.913V13.5901H159.959V8.91406H163.052V13.5901H166.218V16.0742H163.052V22.5768C163.052 23.21 163.198 23.6484 163.466 23.8919C163.758 24.1355 164.172 24.2572 164.732 24.2572C165.365 24.2572 165.95 24.1355 166.486 23.8676V26.303C165.804 26.5952 164.976 26.7414 163.977 26.7414C162.516 26.7414 161.493 26.4248 160.884 25.7916Z" fill="white"/>
<path d="M169.968 25.9133C169.018 25.3532 168.263 24.5495 167.728 23.5266C167.192 22.5037 166.924 21.3104 166.924 19.9465C166.924 18.5827 167.192 17.3893 167.728 16.3664C168.263 15.3436 169.018 14.5642 169.968 14.0041C170.918 13.4439 172.014 13.176 173.256 13.176C174.717 13.176 175.959 13.5414 176.982 14.272C178.005 15.0026 178.711 16.0011 179.101 17.3163L176.13 17.9738C175.911 17.2432 175.57 16.6831 175.107 16.2934C174.62 15.9037 174.011 15.7089 173.28 15.7089C172.257 15.7089 171.478 16.0742 170.894 16.8292C170.333 17.5841 170.041 18.6314 170.041 19.9465C170.041 21.286 170.333 22.3332 170.894 23.0882C171.454 23.8432 172.257 24.2085 173.28 24.2085C174.06 24.2085 174.693 23.9893 175.204 23.5753C175.716 23.1369 176.057 22.5281 176.252 21.7244L179.15 22.455C178.784 23.7945 178.078 24.8417 177.031 25.621C175.984 26.376 174.742 26.7657 173.256 26.7657C172.014 26.7413 170.918 26.4735 169.968 25.9133Z" fill="white"/>
<path d="M180.489 7.71997H183.582V15.3916C184.094 14.7096 184.703 14.1738 185.458 13.7842C186.213 13.3945 187.016 13.1997 187.893 13.1997C189.354 13.1997 190.499 13.6137 191.254 14.4661C192.033 15.3185 192.398 16.5362 192.398 18.1192V26.3753H189.306V18.7524C189.306 17.6565 189.135 16.9015 188.77 16.4388C188.404 15.9761 187.82 15.7569 187.041 15.7569C186.48 15.7569 185.969 15.903 185.482 16.1953C184.995 16.4875 184.581 16.9015 184.289 17.4373C184.069 17.8513 183.899 18.3384 183.777 18.8986C183.655 19.4587 183.607 20.2137 183.607 21.1392V26.3997H180.514V7.71997H180.489Z" fill="white"/>
<defs>
<linearGradient id="paint0_linear_2285_491" x1="1.1025e-05" y1="16.5122" x2="32.7309" y2="16.5122" gradientUnits="userSpaceOnUse">
<stop stop-color="#21EEA3"/>
<stop offset="0.0642" stop-color="#21E6AA"/>
<stop offset="0.1623" stop-color="#23D1BE"/>
<stop offset="0.2813" stop-color="#25AFDD"/>
<stop offset="0.3873" stop-color="#278AFF"/>
<stop offset="0.5352" stop-color="#4576FD"/>
<stop offset="0.8551" stop-color="#9044F9"/>
<stop offset="1" stop-color="#B42CF7"/>
</linearGradient>
</defs>
</svg>
