<svg width="64" height="82" viewBox="0 0 64 82" fill="none" xmlns="http://www.w3.org/2000/svg">
<path fill-rule="evenodd" clip-rule="evenodd" d="M12.7094 1.60586C12.9474 1.36773 13.23 1.17883 13.541 1.04995C13.852 0.921072 14.1853 0.854736 14.522 0.854736C14.8586 0.854736 15.192 0.921072 15.503 1.04995C15.814 1.17883 16.0965 1.36773 16.3345 1.60586L20.5302 5.79811C23.8516 3.81781 27.6478 2.77518 31.5148 2.78119H32.222C36.2366 2.78119 39.9915 3.88136 43.2066 5.79811L47.4023 1.60586C47.888 1.15322 48.5305 0.906795 49.1944 0.918508C49.8582 0.930221 50.4916 1.19915 50.9611 1.66865C51.4306 2.13814 51.6996 2.77154 51.7113 3.4354C51.723 4.09927 51.4766 4.74176 51.0239 5.22752L47.2963 8.95852C50.9494 12.5479 53.1955 17.3273 53.6274 22.4304C54.737 22.0606 55.9186 21.9598 57.0748 22.1363C58.231 22.3128 59.3287 22.7616 60.2774 23.4457C61.2261 24.1298 61.9986 25.0295 62.5313 26.0708C63.0639 27.1121 63.3415 28.265 63.341 29.4346V46.781C63.3417 47.9438 63.0677 49.0902 62.5412 50.127C62.0147 51.1637 61.2507 52.0614 60.3115 52.7468C59.3723 53.4323 58.2844 53.8861 57.1365 54.0713C55.9886 54.2565 54.8131 54.1678 53.706 53.8125V60.1846C53.706 63.304 52.1856 66.0647 49.8486 67.7764V72.7989C49.8486 75.0118 48.9695 77.134 47.4048 78.6987C45.8401 80.2634 43.7179 81.1424 41.5051 81.1424C39.2923 81.1424 37.1701 80.2634 35.6053 78.6987C34.0406 77.134 33.1616 75.0118 33.1616 72.7989V69.5804H30.5752V72.8024C30.5752 75.0152 29.6961 77.1374 28.1314 78.7021C26.5667 80.2668 24.4445 81.1459 22.2317 81.1459C20.0188 81.1459 17.8966 80.2668 16.3319 78.7021C14.7672 77.1374 13.8882 75.0152 13.8882 72.8024V67.7764C12.6926 66.9046 11.7202 65.7623 11.0504 64.4429C10.3806 63.1234 10.0324 61.6643 10.0342 60.1846V53.8125C8.92703 54.1678 7.75161 54.2565 6.6037 54.0713C5.4558 53.8861 4.3679 53.4323 3.42867 52.7468C2.48943 52.0614 1.72545 51.1637 1.19898 50.127C0.672519 49.0902 0.398469 47.9438 0.399171 46.781V29.4346C0.398904 28.2654 0.676437 27.1129 1.20891 26.072C1.74137 25.0311 2.51354 24.1315 3.46179 23.4476C4.41004 22.7636 5.50723 22.3147 6.66298 22.1378C7.81873 21.961 8.99995 22.0613 10.1093 22.4304C10.5415 17.3274 12.7876 12.548 16.4404 8.95852L12.7094 5.22752C12.2295 4.74705 11.96 4.09575 11.96 3.41669C11.96 2.73762 12.2295 2.08633 12.7094 1.60586ZM16.0065 27.1796C15.7812 27.1814 15.5656 27.2722 15.4069 27.4322C15.2482 27.5922 15.1592 27.8084 15.1592 28.0338V60.1846C15.1592 61.3143 15.6068 62.3981 16.404 63.1985C17.2013 63.999 18.2832 64.4509 19.4129 64.4554H44.3238C45.4536 64.4509 46.5355 63.999 47.3327 63.1985C48.13 62.3981 48.5776 61.3143 48.5776 60.1846V28.0338C48.5776 27.8084 48.4885 27.5922 48.3298 27.4322C48.1711 27.2722 47.9556 27.1814 47.7303 27.1796H16.0065ZM47.7371 22.0546H48.4307C47.8947 18.1361 45.9576 14.5444 42.9777 11.9439C39.9979 9.34343 36.177 7.91028 32.222 7.90961H31.5148C27.5598 7.91028 23.7389 9.34343 20.759 11.9439C17.7792 14.5444 15.8421 18.1361 15.3061 22.0546H47.7234H47.7371ZM38.2866 72.8024V69.5804H44.7236V72.8024C44.7236 73.225 44.6403 73.6435 44.4786 74.034C44.3169 74.4245 44.0798 74.7793 43.7809 75.0782C43.482 75.377 43.1272 75.6141 42.7368 75.7759C42.3463 75.9376 41.9277 76.0209 41.5051 76.0209C41.0824 76.0209 40.6639 75.9376 40.2734 75.7759C39.8829 75.6141 39.5281 75.377 39.2293 75.0782C38.9304 74.7793 38.6933 74.4245 38.5316 74.034C38.3698 73.6435 38.2866 73.225 38.2866 72.8024ZM19.4061 69.5804H25.4502V72.8024C25.4502 73.656 25.1111 74.4746 24.5075 75.0782C23.9039 75.6818 23.0853 76.0209 22.2317 76.0209C21.3781 76.0209 20.5594 75.6818 19.9558 75.0782C19.3523 74.4746 19.0132 73.656 19.0132 72.8024V69.5804H19.4061ZM55.961 49.0394C55.3641 49.0394 54.7916 48.8028 54.3689 48.3814C53.9462 47.96 53.7078 47.3881 53.706 46.7913V29.4244C53.7074 28.8263 53.9463 28.2533 54.3701 27.8313C54.58 27.6224 54.8289 27.4569 55.1028 27.3442C55.3766 27.2315 55.67 27.1738 55.9661 27.1745C56.2623 27.1752 56.5554 27.2341 56.8287 27.3481C57.102 27.462 57.3502 27.6287 57.5592 27.8386C57.7681 28.0485 57.9336 28.2974 58.0463 28.5713C58.159 28.8451 58.2167 29.1385 58.216 29.4346V46.781C58.216 47.3791 57.9784 47.9527 57.5555 48.3755C57.1326 48.7984 56.5591 49.0394 55.961 49.0394ZM10.0308 29.4175C10.0289 28.8195 9.78963 28.2466 9.36545 27.825C8.94127 27.4034 8.36698 27.1675 7.76892 27.1694C7.17086 27.1712 6.59801 27.4105 6.1764 27.8347C5.75478 28.2588 5.51894 28.8331 5.52075 29.4312V46.7776C5.51849 47.3757 5.7539 47.9501 6.17519 48.3746C6.59648 48.7991 7.16915 49.0389 7.76721 49.0411C8.36528 49.0434 8.93974 48.808 9.36424 48.3867C9.78874 47.9654 10.0285 47.3928 10.0308 46.7947V29.4175Z" fill="#FBFBFB"/>
</svg>
