<svg width="83" height="130" viewBox="0 0 83 130" fill="none" xmlns="http://www.w3.org/2000/svg">
<path d="M39.1083 92.3332L56.1916 59.0208H44.2333V37.6666L27.1499 70.9791H39.1083V92.3332ZM41.4999 99.1666C36.7735 99.1666 32.3319 98.2691 28.1749 96.4743C24.018 94.6794 20.402 92.2456 17.327 89.1728C14.252 86.1001 11.8182 82.4841 10.0256 78.3249C8.23298 74.1657 7.33553 69.724 7.33326 64.9999C7.33098 60.2758 8.22842 55.8341 10.0256 51.6749C11.8228 47.5157 14.2566 43.8997 17.327 40.827C20.3975 37.7543 24.0134 35.3205 28.1749 33.5256C32.3364 31.7307 36.7781 30.8333 41.4999 30.8333C46.2218 30.8333 50.6634 31.7307 54.8249 33.5256C58.9864 35.3205 62.6024 37.7543 65.6728 40.827C68.7433 43.8997 71.1782 47.5157 72.9777 51.6749C74.7771 55.8341 75.6734 60.2758 75.6666 64.9999C75.6598 69.724 74.7623 74.1657 72.9743 78.3249C71.1862 82.4841 68.7524 86.1001 65.6728 89.1728C62.5933 92.2456 58.9773 94.6805 54.8249 96.4777C50.6725 98.2748 46.2309 99.1711 41.4999 99.1666ZM41.4999 92.3332C49.0735 92.3332 55.5231 89.6717 60.8485 84.3485C66.174 79.0253 68.8355 72.5758 68.8333 64.9999C68.831 57.424 66.1694 50.9745 60.8485 45.6513C55.5276 40.3282 49.0781 37.6666 41.4999 37.6666C33.9218 37.6666 27.4722 40.3293 22.1513 45.6548C16.8305 50.9802 14.1689 57.4286 14.1666 64.9999C14.1643 72.5713 16.827 79.0208 22.1548 84.3485C27.4825 89.6762 33.9309 92.3378 41.4999 92.3332Z" fill="white"/>
</svg>
