<svg width="82" height="71" viewBox="0 0 82 71" fill="none" xmlns="http://www.w3.org/2000/svg">
<path fill-rule="evenodd" clip-rule="evenodd" d="M22.9364 12.8031C31.5607 9.22885 41.0514 8.29327 50.2076 10.1147C59.3638 11.9362 67.774 16.4327 74.3738 23.0355C74.7759 23.4671 75.2609 23.8132 75.7998 24.0533C76.3386 24.2934 76.9203 24.4225 77.5102 24.4329C78.1 24.4433 78.6859 24.3348 79.2329 24.1139C79.7798 23.893 80.2767 23.5641 80.6939 23.147C81.111 22.7299 81.4398 22.233 81.6608 21.686C81.8817 21.139 81.9902 20.5531 81.9798 19.9633C81.9694 19.3734 81.8403 18.7918 81.6002 18.2529C81.3601 17.714 81.014 17.2291 80.5824 16.8269C75.3847 11.6271 69.2135 7.50226 62.4213 4.68802C55.6291 1.87378 48.349 0.425293 40.9969 0.425293C33.6447 0.425293 26.3646 1.87378 19.5724 4.68802C12.7802 7.50226 6.60903 11.6271 1.41136 16.8269C0.991988 17.2323 0.657563 17.7172 0.427594 18.2533C0.197625 18.7893 0.0767172 19.3658 0.0719256 19.9491C0.0671339 20.5324 0.178554 21.1108 0.399686 21.6505C0.620817 22.1903 0.94723 22.6806 1.35988 23.0929C1.77253 23.5051 2.26315 23.8311 2.80312 24.0517C3.34309 24.2723 3.92159 24.3832 4.50486 24.3779C5.08814 24.3725 5.66451 24.2511 6.20035 24.0206C6.73618 23.7901 7.22075 23.4552 7.62578 23.0355C12.0077 18.6522 17.2103 15.1752 22.9364 12.8031ZM40.9998 25.8586C36.7333 25.8586 32.5089 26.702 28.5695 28.3405C24.6302 29.9789 21.0537 32.3801 18.0456 35.4058C17.2239 36.2322 16.1075 36.6983 14.9421 36.7016C13.7766 36.7049 12.6576 36.2451 11.8312 35.4233C11.0048 34.6016 10.5387 33.4852 10.5354 32.3198C10.5321 31.1543 10.9919 30.0353 11.8136 29.2089C15.6385 25.3621 20.1862 22.3094 25.195 20.2263C30.2038 18.1432 35.5751 17.0708 40.9998 17.0708C46.4245 17.0708 51.7957 18.1432 56.8046 20.2263C61.8134 22.3094 66.361 25.3621 70.1859 29.2089C71.0077 30.0353 71.4675 31.1543 71.4642 32.3198C71.4609 33.4852 70.9948 34.6016 70.1684 35.4233C69.3419 36.2451 68.2229 36.7049 67.0575 36.7016C65.8921 36.6983 64.7757 36.2322 63.9539 35.4058C60.9459 32.3801 57.3694 29.9789 53.43 28.3405C49.4907 26.702 45.2663 25.8586 40.9998 25.8586ZM35.2598 43.0728C38.0757 41.8842 41.1847 41.5726 44.1805 42.1787C47.1763 42.7847 49.9197 44.2803 52.0522 46.4699C52.8654 47.3049 53.977 47.7826 55.1424 47.798C56.3079 47.8133 57.4317 47.3651 58.2666 46.5519C59.1016 45.7387 59.5793 44.6271 59.5947 43.4617C59.6101 42.2962 59.1618 41.1724 58.3486 40.3375C56.1144 38.0432 53.4431 36.2197 50.4926 34.9746C47.5421 33.7295 44.3721 33.088 41.1696 33.088C37.9672 33.088 34.7972 33.7295 31.8466 34.9746C28.8961 36.2197 26.2249 38.0432 23.9906 40.3375C23.1767 41.1717 22.7274 42.295 22.7417 43.4605C22.7559 44.6259 23.2326 45.7379 24.0668 46.5519C24.901 47.3659 26.0243 47.8152 27.1898 47.8009C28.3552 47.7866 29.4672 47.3099 30.2812 46.4758C31.6986 45.0232 33.3914 43.8635 35.2598 43.0786V43.0728ZM31.6752 61.6048C31.6752 59.1317 32.6576 56.76 34.4063 55.0113C36.155 53.2626 38.5268 52.2802 40.9998 52.2802C43.4728 52.2802 45.8446 53.2626 47.5933 55.0113C49.3419 56.76 50.3244 59.1317 50.3244 61.6048C50.3244 64.0778 49.3419 66.4495 47.5933 68.1982C45.8446 69.9469 43.4728 70.9293 40.9998 70.9293C38.5268 70.9293 36.155 69.9469 34.4063 68.1982C32.6576 66.4495 31.6752 64.0778 31.6752 61.6048Z" fill="white"/>
</svg>
